<svg xmlns="http://www.w3.org/2000/svg" xmlns:xlink="http://www.w3.org/1999/xlink" id="processonSvg1000" viewBox="80.0 80.0 560.0 450.0" width="560.0" height="450.0"><defs id="ProcessOnDefs1001"/><g id="ProcessOnG1002"><path id="ProcessOnPath1003" d="M80.0 80.0H640.0V530.0H80.0V80.0Z" fill="none"/><g id="ProcessOnG1004"><g id="ProcessOnG1005" transform="matrix(1.0,0.0,0.0,1.0,100.0,100.0)" opacity="1.0"><path id="ProcessOnPath1006" d="M0.0 0.0L100.0 0.0L100.0 50.0L0.0 50.0Z" stroke="none" stroke-width="0.0" stroke-dasharray="none" opacity="1.0" fill="#00bcd4"/><g id="ProcessOnG1007" transform="matrix(1.0,0.0,0.0,1.0,10.0,8.75)"><text id="ProcessOnText1008" fill="#ffffff" font-size="13" x="39.0" y="13.325" font-family="微软雅黑" font-weight="normal" font-style="normal" text-decoration="none" family="微软雅黑" text-anchor="middle" size="13">Desktop </text><text id="ProcessOnText1009" fill="#ffffff" font-size="13" x="39.0" y="29.575" font-family="微软雅黑" font-weight="normal" font-style="normal" text-decoration="none" family="微软雅黑" text-anchor="middle" size="13">Web</text></g></g><g id="ProcessOnG1010" transform="matrix(1.0,0.0,0.0,1.0,240.0,100.0)" opacity="1.0"><path id="ProcessOnPath1011" d="M0.0 0.0L100.0 0.0L100.0 50.0L0.0 50.0Z" stroke="none" stroke-width="0.0" stroke-dasharray="none" opacity="1.0" fill="#00bcd4"/><g id="ProcessOnG1012" transform="matrix(1.0,0.0,0.0,1.0,10.0,16.875)"><text id="ProcessOnText1013" fill="#ffffff" font-size="13" x="39.0" y="13.325" font-family="微软雅黑" font-weight="normal" font-style="normal" text-decoration="none" family="微软雅黑" text-anchor="middle" size="13">Mobile Web</text></g></g><g id="ProcessOnG1014" transform="matrix(1.0,0.0,0.0,1.0,380.0,100.0)" opacity="1.0"><path id="ProcessOnPath1015" d="M0.0 0.0L100.0 0.0L100.0 50.0L0.0 50.0Z" stroke="none" stroke-width="0.0" stroke-dasharray="none" opacity="1.0" fill="#00bcd4"/><g id="ProcessOnG1016" transform="matrix(1.0,0.0,0.0,1.0,10.0,16.875)"><text id="ProcessOnText1017" fill="#ffffff" font-size="13" x="39.0" y="13.325" font-family="微软雅黑" font-weight="normal" font-style="normal" text-decoration="none" family="微软雅黑" text-anchor="middle" size="13">Android APP</text></g></g><g id="ProcessOnG1018" transform="matrix(1.0,0.0,0.0,1.0,520.0,100.0)" opacity="1.0"><path id="ProcessOnPath1019" d="M0.0 0.0L100.0 0.0L100.0 50.0L0.0 50.0Z" stroke="none" stroke-width="0.0" stroke-dasharray="none" opacity="1.0" fill="#00bcd4"/><g id="ProcessOnG1020" transform="matrix(1.0,0.0,0.0,1.0,10.0,16.875)"><text id="ProcessOnText1021" fill="#ffffff" font-size="13" x="39.0" y="13.325" font-family="微软雅黑" font-weight="normal" font-style="normal" text-decoration="none" family="微软雅黑" text-anchor="middle" size="13">CMS</text></g></g><g id="ProcessOnG1022" transform="matrix(1.0,0.0,0.0,1.0,240.0,190.0)" opacity="1.0"><path id="ProcessOnPath1023" d="M0.0 0.0L100.0 0.0L100.0 50.0L0.0 50.0Z" stroke="none" stroke-width="0.0" stroke-dasharray="none" opacity="1.0" fill="#ff4081"/><g id="ProcessOnG1024" transform="matrix(1.0,0.0,0.0,1.0,10.0,16.875)"><text id="ProcessOnText1025" fill="#ffffff" font-size="13" x="39.0" y="13.325" font-family="微软雅黑" font-weight="normal" font-style="normal" text-decoration="none" family="微软雅黑" text-anchor="middle" size="13">API</text></g></g><g id="ProcessOnG1026" transform="matrix(1.0,0.0,0.0,1.0,380.0,280.0)" opacity="1.0"><path id="ProcessOnPath1027" d="M0.0 0.0L100.0 0.0L100.0 50.0L0.0 50.0Z" stroke="none" stroke-width="0.0" stroke-dasharray="none" opacity="1.0" fill="#4caf50"/><g id="ProcessOnG1028" transform="matrix(1.0,0.0,0.0,1.0,10.0,16.875)"><text id="ProcessOnText1029" fill="#ffffff" font-size="13" x="39.0" y="13.325" font-family="微软雅黑" font-weight="normal" font-style="normal" text-decoration="none" family="微软雅黑" text-anchor="middle" size="13">API Server</text></g></g><g id="ProcessOnG1030" transform="matrix(1.0,0.0,0.0,1.0,170.0,350.0)" opacity="1.0"><path id="ProcessOnPath1031" d="M0.0 0.0L100.0 0.0L100.0 50.0L0.0 50.0Z" stroke="none" stroke-width="0.0" stroke-dasharray="none" opacity="1.0" fill="#ffeb3b"/><g id="ProcessOnG1032" transform="matrix(1.0,0.0,0.0,1.0,10.0,8.75)"><text id="ProcessOnText1033" fill="#ffffff" font-size="13" x="39.0" y="13.325" font-family="微软雅黑" font-weight="normal" font-style="normal" text-decoration="none" family="微软雅黑" text-anchor="middle" size="13">Image </text><text id="ProcessOnText1034" fill="#ffffff" font-size="13" x="39.0" y="29.575" font-family="微软雅黑" font-weight="normal" font-style="normal" text-decoration="none" family="微软雅黑" text-anchor="middle" size="13">Server</text></g></g><g id="ProcessOnG1035" transform="matrix(1.0,0.0,0.0,1.0,520.0,370.0)" opacity="1.0"><path id="ProcessOnPath1036" d="M0.0 0.0L100.0 0.0L100.0 50.0L0.0 50.0Z" stroke="none" stroke-width="0.0" stroke-dasharray="none" opacity="1.0" fill="#ff5722"/><g id="ProcessOnG1037" transform="matrix(1.0,0.0,0.0,1.0,10.0,16.875)"><text id="ProcessOnText1038" fill="#ffffff" font-size="13" x="39.0" y="13.325" font-family="微软雅黑" font-weight="normal" font-style="normal" text-decoration="none" family="微软雅黑" text-anchor="middle" size="13">Cache</text></g></g><g id="ProcessOnG1039" transform="matrix(1.0,0.0,0.0,1.0,450.0,460.0)" opacity="1.0"><path id="ProcessOnPath1040" d="M0.0 0.0L100.0 0.0L100.0 50.0L0.0 50.0Z" stroke="none" stroke-width="0.0" stroke-dasharray="none" opacity="1.0" fill="#f44336"/><g id="ProcessOnG1041" transform="matrix(1.0,0.0,0.0,1.0,10.0,16.875)"><text id="ProcessOnText1042" fill="#ffffff" font-size="13" x="39.0" y="13.325" font-family="微软雅黑" font-weight="normal" font-style="normal" text-decoration="none" family="微软雅黑" text-anchor="middle" size="13">Database</text></g></g><g id="ProcessOnG1043" transform="matrix(1.0,0.0,0.0,1.0,520.0,190.0)" opacity="1.0"><path id="ProcessOnPath1044" d="M0.0 0.0L100.0 0.0L100.0 50.0L0.0 50.0Z" stroke="none" stroke-width="0.0" stroke-dasharray="none" opacity="1.0" fill="#ff4081"/><g id="ProcessOnG1045" transform="matrix(1.0,0.0,0.0,1.0,10.0,16.875)"><text id="ProcessOnText1046" fill="#ffffff" font-size="13" x="39.0" y="13.325" font-family="微软雅黑" font-weight="normal" font-style="normal" text-decoration="none" family="微软雅黑" text-anchor="middle" size="13">Internal API</text></g></g><g id="ProcessOnG1047"><path id="ProcessOnPath1048" d="M290.0 150.0L290.0 190.0" stroke="#bdbdbd" stroke-width="1.0" stroke-dasharray="none" fill="none"/></g><g id="ProcessOnG1049"><path id="ProcessOnPath1050" d="M570.0 150.0L570.0 190.0" stroke="#bdbdbd" stroke-width="1.0" stroke-dasharray="none" fill="none"/></g><g id="ProcessOnG1051"><path id="ProcessOnPath1052" d="M290.0 240.0L430.0 280.0" stroke="#bdbdbd" stroke-width="1.0" stroke-dasharray="none" fill="none"/></g><g id="ProcessOnG1053"><path id="ProcessOnPath1054" d="M500.0 460.0L430.0 330.0" stroke="#bdbdbd" stroke-width="1.0" stroke-dasharray="none" fill="none"/></g><g id="ProcessOnG1055"><path id="ProcessOnPath1056" d="M570.0 370.0L430.0 330.0" stroke="#bdbdbd" stroke-width="1.0" stroke-dasharray="none" fill="none"/></g><g id="ProcessOnG1057"><path id="ProcessOnPath1058" d="M570.0 240.0L430.0 280.0" stroke="#bdbdbd" stroke-width="1.0" stroke-dasharray="none" fill="none"/></g><g id="ProcessOnG1059"><path id="ProcessOnPath1060" d="M270.0 375.0L430.0 330.0" stroke="#bdbdbd" stroke-width="1.0" stroke-dasharray="none" fill="none"/></g><g id="ProcessOnG1061"><path id="ProcessOnPath1062" d="M150.0 150.0L290.0 190.0" stroke="#bdbdbd" stroke-width="1.0" stroke-dasharray="none" fill="none"/></g><g id="ProcessOnG1063"><path id="ProcessOnPath1064" d="M430.0 150.0L290.0 190.0" stroke="#bdbdbd" stroke-width="1.0" stroke-dasharray="none" fill="none"/></g><g id="ProcessOnG1065"><path id="ProcessOnPath1066" d="M570.0 420.0L500.0 460.0" stroke="#bdbdbd" stroke-width="1.0" stroke-dasharray="none" fill="none"/></g></g></g></svg>